<svg width="448" height="448" viewBox="0 0 448 448" fill="none" xmlns="http://www.w3.org/2000/svg">
<path d="M201.088 446.204C195.918 443.657 193.528 439.491 188.49 424.25L183.818 410.114L176.147 407.39C171.928 405.893 165.337 403.195 161.5 401.395L154.524 398.123L140.598 405.005C126.114 412.161 120.757 413.398 115.592 410.778C112.465 409.192 87.0476 383.91 85.3391 380.686C82.3651 375.074 83.4335 370.084 90.8006 355.174L97.6932 341.224L94.3155 334.305C92.4577 330.5 89.7784 323.927 88.3615 319.699L85.7853 312.011L71.5967 307.321C48.1735 299.579 47.908 299.182 47.908 271.886C47.908 244.6 48.1812 244.191 71.5386 236.47L85.6692 231.8L87.3203 227.476L88.9715 223.153L100.19 223.611C106.36 223.863 114.108 223.622 117.408 223.08C120.708 222.536 123.524 222.199 123.667 222.331C123.809 222.463 122.626 225.454 121.038 228.978C119.449 232.503 116.97 239.277 115.528 244.033C111.999 255.673 109.919 257.424 92.9785 263.015L79.908 267.329V271.886V276.444L93.158 280.81C110.265 286.447 112.505 288.47 115.93 301.386C117.366 306.803 121.019 315.762 125.104 323.886C129.732 333.092 131.894 338.539 131.9 341.009C131.907 343.457 129.829 348.847 125.501 357.622L119.094 370.611L122.139 373.655L125.183 376.7L138.173 370.293C146.947 365.965 152.338 363.889 154.785 363.895C157.256 363.902 162.702 366.062 171.908 370.69C180.032 374.775 188.992 378.428 194.408 379.864C207.324 383.29 209.347 385.529 214.984 402.636L219.35 415.886H223.908H228.465L232.779 402.816C238.211 386.357 240.299 383.73 250.248 380.831C261.825 377.459 267.756 375.063 278.771 369.312C285.958 365.559 290.317 363.886 292.908 363.886C295.495 363.886 300.674 365.869 309.643 370.293L322.633 376.7L325.677 373.655L328.722 370.611L322.315 357.622C317.891 348.653 315.908 343.473 315.908 340.886C315.908 338.295 317.581 333.936 321.334 326.749C327.085 315.735 329.48 309.804 332.853 298.226C335.752 288.277 338.379 286.189 354.837 280.758L367.908 276.444V271.886V267.329L354.837 263.015C337.897 257.424 335.817 255.673 332.288 244.033C330.846 239.277 328.367 232.503 326.778 228.978C325.19 225.454 324.007 222.462 324.149 222.329C324.292 222.197 326.883 222.512 329.908 223.031C332.933 223.55 340.769 223.842 347.322 223.68L359.236 223.386L360.635 227.574L362.033 231.762L376.221 236.451C399.642 244.193 399.908 244.591 399.908 271.886C399.908 299.182 399.642 299.579 376.219 307.321L362.031 312.011L359.454 319.699C358.037 323.927 355.358 330.5 353.5 334.305L350.123 341.224L357.015 355.174C364.184 369.681 365.421 375.035 362.8 380.202C361.214 383.329 335.931 408.746 332.708 410.455C327.098 413.428 322.104 412.36 307.214 405.002L293.282 398.119L285.345 401.884C280.98 403.955 274.39 406.657 270.701 407.888L263.993 410.127L259.323 424.257C251.594 447.642 251.212 447.896 223.757 447.863C207.894 447.844 203.81 447.546 201.088 446.204ZM212.908 334.945C199.972 332.523 188.532 326.425 178.951 316.844C171.396 309.289 166.857 302.083 163.125 291.721C160.802 285.27 160.484 282.88 160.484 271.886C160.484 260.892 160.802 258.503 163.125 252.052C166.857 241.69 171.396 234.483 178.951 226.929C186.505 219.374 193.711 214.835 204.073 211.103C210.524 208.78 212.914 208.462 223.908 208.462C234.902 208.462 237.292 208.78 243.743 211.103C254.105 214.835 261.311 219.374 268.865 226.929C308.031 266.094 282.114 333.091 226.908 335.392C221.683 335.609 215.383 335.407 212.908 334.945ZM237.408 300.807C243.734 297.805 249.756 291.813 252.907 285.386C256.427 278.207 256.427 265.565 252.907 258.386C249.781 252.011 243.783 246.013 237.408 242.887C230.229 239.367 217.587 239.367 210.408 242.887C184.414 255.632 186.581 292.347 213.913 302.279C220.224 304.572 230.88 303.904 237.408 300.807ZM93.908 207.429C93.083 207.23 89.033 206.522 84.908 205.857C54.2731 200.916 25.3966 178.95 10.6749 149.386C-8.49048 110.899 -1.41491 64.4629 28.408 33.0059C37.0006 23.9424 44.4501 18.1292 54.2364 12.8505C88.7625 -5.77263 127.847 -4.08874 161.609 17.4764C168.198 21.6852 180.838 33.6539 186.604 41.143C195.56 52.7768 202.989 69.3363 206.005 84.3863C207.743 93.06 207.769 115.273 206.051 123.386C201.771 143.59 193.086 160.34 179.408 174.767C164.17 190.84 146.442 200.932 125.408 205.509C118.887 206.928 97.2816 208.245 93.908 207.429ZM88.9117 172.136C88.923 166.764 97.3431 159.886 103.908 159.886C110.522 159.886 118.893 166.769 118.904 172.216C118.907 173.755 119.423 173.935 122.158 173.351C131.923 171.264 144.265 164.371 153.218 156.003C162.425 147.398 171.163 132.724 173.385 122.136C173.958 119.406 173.774 118.886 172.237 118.883C166.791 118.871 159.908 110.5 159.908 103.886C159.908 97.2724 166.791 88.9011 172.237 88.89C173.774 88.887 173.958 88.3664 173.385 85.6362C171.163 75.0483 162.425 60.3743 153.218 51.7695C144.265 43.4015 131.923 36.5085 122.158 34.4218C119.423 33.8374 118.907 34.0174 118.904 35.5568C118.893 41.0037 110.522 47.8862 103.908 47.8862C97.2941 47.8862 88.9228 41.0037 88.9117 35.5568C88.9085 34.0199 88.3882 33.8364 85.658 34.4094C75.07 36.6313 60.396 45.3691 51.7912 54.576C43.4232 63.5294 36.5302 75.8709 34.4435 85.6362C33.8591 88.371 34.0391 88.8869 35.5785 88.89C41.0254 88.9013 47.908 97.2724 47.908 103.886C47.908 110.5 41.0254 118.871 35.5785 118.883C34.0417 118.885 33.8581 119.406 34.4311 122.136C35.7065 128.214 40.6738 138.804 45.2712 145.247C53.8232 157.231 66.2763 166.74 79.5588 171.427C87.7792 174.328 88.9068 174.413 88.9117 172.136ZM73.0876 118.204C71.2614 117.305 68.5614 114.987 67.0876 113.055C63.5793 108.455 63.2701 99.5569 66.4698 95.2714C71.0067 89.1946 73.0878 88.414 85.7275 88.0482L97.4079 87.7103L108.997 76.3739C121.372 64.2682 123.902 62.9123 131.464 64.3309C136.188 65.2173 142.577 71.6061 143.463 76.3307C144.949 84.2488 143.758 86.2549 128.199 102.031C120.2 110.142 112.182 117.478 110.381 118.332C105.564 120.618 77.7923 120.523 73.0876 118.204ZM333.908 207.429C333.083 207.23 329.033 206.522 324.908 205.857C294.273 200.916 265.397 178.95 250.675 149.386C231.51 110.899 238.585 64.4629 268.408 33.0059C277.001 23.9424 284.45 18.1292 294.236 12.8505C328.762 -5.77263 367.847 -4.08874 401.609 17.4764C408.198 21.6852 420.838 33.6539 426.604 41.143C435.559 52.7768 442.989 69.3363 446.005 84.3863C447.743 93.06 447.769 115.273 446.051 123.386C441.771 143.59 433.086 160.34 419.408 174.767C404.17 190.84 386.442 200.932 365.408 205.509C358.887 206.928 337.282 208.245 333.908 207.429ZM365.075 172.626C376.877 168.817 385.43 163.54 394.496 154.474C403.494 145.476 408.739 137.014 412.733 125.053C414.975 118.34 415.293 115.707 415.293 103.886C415.293 92.0652 414.975 89.4328 412.733 82.7196C408.739 70.759 403.494 62.2961 394.496 53.2983C385.498 44.3006 377.035 39.0547 365.075 35.061C358.361 32.8194 355.729 32.501 343.908 32.501C332.087 32.501 329.454 32.8194 322.741 35.061C310.781 39.0547 302.318 44.3006 293.32 53.2983C284.322 62.2961 279.076 70.759 275.083 82.7196C272.841 89.4328 272.523 92.0652 272.523 103.886C272.523 115.707 272.841 118.34 275.083 125.053C279.076 137.014 284.322 145.476 293.32 154.474C308.576 169.731 324.972 176.218 346.408 175.479C354.583 175.198 359.377 174.465 365.075 172.626ZM325.266 142.291C323.538 141.438 315.587 134.113 307.598 126.012C292.06 110.256 290.867 108.247 292.352 100.33C293.239 95.6059 299.628 89.2171 304.352 88.3307C311.353 87.0175 314.52 88.4683 323.526 97.1148L331.968 105.22L352.198 85.1434C373.905 63.6001 375.151 62.7712 383.464 64.3307C388.188 65.2171 394.577 71.6059 395.463 76.3305C397.074 84.9132 396.751 85.3594 368.14 114.108C353.514 128.805 340.098 141.517 338.326 142.358C334.237 144.299 329.285 144.273 325.266 142.291Z" fill="black"/>
</svg>
