<svg viewBox="0 0 30 24" xmlns="http://www.w3.org/2000/svg">
<path d="M26 0H4C1.79086 0 0 1.79086 0 4V20C0 22.2091 1.79086 24 4 24H26C28.2091 24 30 22.2091 30 20V4C30 1.79086 28.2091 0 26 0Z" fill="white"/>
<path d="M0.638 1.846H29.362C28.651 0.738 27.415 0 26 0H4C2.586 0 1.35 0.738 0.638 1.846Z" fill="#A62842"/>
<path d="M1.03 3.69202C1.022 3.79502 1 3.89402 1 4.00002V5.53902H30V4.00002C30 3.89502 29.978 3.79602 29.97 3.69202H1.03Z" fill="#A62842"/>
<path d="M1 7.38501H30V9.23101H1V7.38501Z" fill="#A62842"/>
<path d="M1 11.077H30V12.923H1V11.077Z" fill="#A62842"/>
<path d="M0 14.769H30V16.615H0V14.769Z" fill="#A62842"/>
<path d="M0 20C0 20.105 0.023 20.204 0.031 20.308H29.969C29.977 20.205 30 20.106 30 20V18.461H0V20Z" fill="#A62842"/>
<path d="M29.362 22.154H0.638C1.349 23.262 2.585 24 4 24H26C27.414 24 28.65 23.262 29.362 22.154Z" fill="#A62842"/>
<path d="M4 0H15V12.923H0V4C0 1.792 1.792 0 4 0Z" fill="#102D5E"/>
<path opacity="0.15" d="M26 0H4C1.791 0 0 1.791 0 4V20C0 22.209 1.791 24 4 24H26C28.209 24 30 22.209 30 20V4C30 1.791 28.209 0 26 0ZM29 20C29 21.654 27.654 23 26 23H4C2.346 23 1 21.654 1 20V4C1 2.346 2.346 1 4 1H26C27.654 1 29 2.346 29 4V20Z" fill="black"/>
<path opacity="0.2" d="M26 1H4C2.343 1 1 2.343 1 4V5C1 3.343 2.343 2 4 2H26C27.657 2 29 3.343 29 5V4C29 2.343 27.657 1 26 1Z" fill="white"/>
<path d="M3.60099 3.46301L4.19299 3.03301H3.46199L3.23599 2.33801L3.00999 3.03301H2.27899L2.86999 3.46301L2.64399 4.15801L3.23599 3.72901L3.82699 4.15801L3.60099 3.46301Z" fill="white"/>
<path d="M6.58 3.46301L7.172 3.03301H6.441L6.215 2.33801L5.989 3.03301H5.258L5.849 3.46301L5.623 4.15801L6.215 3.72901L6.806 4.15801L6.58 3.46301Z" fill="white"/>
<path d="M9.56 3.46301L10.151 3.03301H9.42L9.194 2.33801L8.968 3.03301H8.237L8.828 3.46301L8.603 4.15801L9.194 3.72901L9.785 4.15801L9.56 3.46301Z" fill="white"/>
<path d="M5.06602 5.28302L5.65802 4.85402H4.92702L4.70102 4.15802L4.47502 4.85402H3.74402L4.33502 5.28302L4.10902 5.97902L4.70102 5.54902L5.29202 5.97902L5.06602 5.28302Z" fill="white"/>
<path d="M8.04602 5.28302L8.63702 4.85402H7.90602L7.68002 4.15802L7.45402 4.85402H6.72302L7.31402 5.28302L7.08902 5.97902L7.68002 5.54902L8.27102 5.97902L8.04602 5.28302Z" fill="white"/>
<path d="M11.025 5.28302L11.616 4.85402H10.885L10.659 4.15802L10.433 4.85402H9.70203L10.294 5.28302L10.068 5.97902L10.659 5.54902L11.251 5.97902L11.025 5.28302Z" fill="white"/>
<path d="M5.06602 8.92401L5.65802 8.49401H4.92702L4.70102 7.79901L4.47502 8.49401H3.74402L4.33502 8.92401L4.10902 9.61901L4.70102 9.19001L5.29202 9.61901L5.06602 8.92401Z" fill="white"/>
<path d="M8.04602 8.92401L8.63702 8.49401H7.90602L7.68002 7.79901L7.45402 8.49401H6.72302L7.31402 8.92401L7.08902 9.61901L7.68002 9.19001L8.27102 9.61901L8.04602 8.92401Z" fill="white"/>
<path d="M11.025 8.92401L11.616 8.49401H10.885L10.659 7.79901L10.433 8.49401H9.70203L10.294 8.92401L10.068 9.61901L10.659 9.19001L11.251 9.61901L11.025 8.92401Z" fill="white"/>
<path d="M12.539 3.46301L13.13 3.03301H12.399L12.173 2.33801L11.947 3.03301H11.216L11.808 3.46301L11.582 4.15801L12.173 3.72901L12.765 4.15801L12.539 3.46301Z" fill="white"/>
<path d="M3.60099 7.104L4.19299 6.674H3.46199L3.23599 5.979L3.00999 6.674H2.27899L2.86999 7.104L2.64399 7.799L3.23599 7.369L3.82699 7.799L3.60099 7.104Z" fill="white"/>
<path d="M6.58 7.104L7.172 6.674H6.441L6.215 5.979L5.989 6.674H5.258L5.849 7.104L5.623 7.799L6.215 7.369L6.806 7.799L6.58 7.104Z" fill="white"/>
<path d="M9.56 7.104L10.151 6.674H9.42L9.194 5.979L8.968 6.674H8.237L8.828 7.104L8.603 7.799L9.194 7.369L9.785 7.799L9.56 7.104Z" fill="white"/>
<path d="M12.539 7.104L13.13 6.674H12.399L12.173 5.979L11.947 6.674H11.216L11.808 7.104L11.582 7.799L12.173 7.369L12.765 7.799L12.539 7.104Z" fill="white"/>
<path d="M3.60099 10.744L4.19299 10.315H3.46199L3.23599 9.61902L3.00999 10.315H2.27899L2.86999 10.744L2.64399 11.44L3.23599 11.01L3.82699 11.44L3.60099 10.744Z" fill="white"/>
<path d="M6.58 10.744L7.172 10.315H6.441L6.215 9.61902L5.989 10.315H5.258L5.849 10.744L5.623 11.44L6.215 11.01L6.806 11.44L6.58 10.744Z" fill="white"/>
<path d="M9.56 10.744L10.151 10.315H9.42L9.194 9.61902L8.968 10.315H8.237L8.828 10.744L8.603 11.44L9.194 11.01L9.785 11.44L9.56 10.744Z" fill="white"/>
<path d="M12.539 10.744L13.13 10.315H12.399L12.173 9.61902L11.947 10.315H11.216L11.808 10.744L11.582 11.44L12.173 11.01L12.765 11.44L12.539 10.744Z" fill="white"/>
</svg>
