<svg width="127" height="127" viewBox="0 0 127 127" fill="none" xmlns="http://www.w3.org/2000/svg">
<path d="M123.854 57.4945L68.7382 2.3805C65.5662 -0.7935 60.4182 -0.7935 57.2412 2.3805L45.7972 13.8265L60.3152 28.3445C63.6902 27.2055 67.5582 27.9695 70.2472 30.6585C72.9502 33.3645 73.7082 37.2655 72.5412 40.6515L86.5332 54.6445C89.9182 53.4775 93.8252 54.2315 96.5272 56.9395C100.307 60.7165 100.307 66.8395 96.5272 70.6185C95.6289 71.5172 94.5624 72.2301 93.3885 72.7166C92.2146 73.203 90.9564 73.4533 89.6857 73.4533C88.415 73.4533 87.1568 73.203 85.9829 72.7166C84.809 72.2301 83.7425 71.5172 82.8442 70.6185C81.4946 69.2681 80.5746 67.5486 80.2001 65.6765C79.8255 63.8043 80.0131 61.8632 80.7392 60.0975L67.6912 47.0495L67.6892 81.3905C68.6359 81.8567 69.5002 82.4741 70.2482 83.2185C74.0262 86.9955 74.0262 93.1165 70.2482 96.9015C66.4692 100.679 60.3442 100.679 56.5692 96.9015C52.7912 93.1175 52.7912 86.9965 56.5692 83.2185C57.4743 82.3119 58.5509 81.5946 59.7362 81.1085V46.4495C58.55 45.9647 57.4731 45.2469 56.5692 44.3385C53.7072 41.4785 53.0182 37.2785 54.4862 33.7625L40.1732 19.4495L2.3812 57.2395C0.856518 58.7647 0 60.8329 0 62.9895C0 65.1461 0.856518 67.2143 2.3812 68.7395L57.4982 123.854C60.6722 127.028 65.8182 127.028 68.9972 123.854L123.855 68.9955C125.38 67.4699 126.236 65.4014 126.236 63.2448C126.235 61.0881 125.379 59.0198 123.854 57.4945Z" fill="#F34F29"/>
</svg>
